<?xml version="1.0" encoding="utf-8"?>
<!-- Generator: Adobe Illustrator 22.1.0, SVG Export Plug-In . SVG Version: 6.00 Build 0)  -->
<svg version="1.1" id="Layer_1" xmlns="http://www.w3.org/2000/svg" xmlns:xlink="http://www.w3.org/1999/xlink" x="0px" y="0px"
	 viewBox="0 0 400 400" style="enable-background:new 0 0 400 400;" xml:space="preserve">
<style type="text/css">
	.st0{fill:#EFF5F4;}
</style>
<path class="st0" d="M236.6,200L392.4,44.2c10.1-10.1,10.1-26.5,0-36.6c-10.1-10.1-26.5-10.1-36.6,0L200,163.4L44.2,7.6
	C34.1-2.5,17.7-2.5,7.6,7.6c-10.1,10.1-10.1,26.5,0,36.6L163.4,200L7.6,355.8c-10.1,10.1-10.1,26.5,0,36.6c5,5.1,11.7,7.6,18.3,7.6
	s13.3-2.5,18.3-7.6L200,236.6l155.8,155.8c5.1,5.1,11.7,7.6,18.3,7.6s13.3-2.5,18.3-7.6c10.1-10.1,10.1-26.5,0-36.6L236.6,200z"/>
</svg>
