<?xml version="1.0" encoding="utf-8"?>
<!-- Generator: Adobe Illustrator 22.1.0, SVG Export Plug-In . SVG Version: 6.00 Build 0)  -->
<svg version="1.1" id="Layer_1" xmlns="http://www.w3.org/2000/svg" xmlns:xlink="http://www.w3.org/1999/xlink" x="0px" y="0px"
	 viewBox="0 0 512 364" style="enable-background:new 0 0 512 364;" xml:space="preserve">
<style type="text/css">
	.st0{fill:#3E645F;}
</style>
<title>Artboard 1</title>
<path class="st0" d="M464.9,0H47.1C21.1,0,0,17,0,38c0,21,21.1,38,47.1,38h417.8c26,0,47.1-17,47.1-38C512,17,490.9,0,464.9,0z"/>
<path class="st0" d="M464.9,144H47.1C21.1,144,0,161,0,182s21.1,38,47.1,38h417.8c26,0,47.1-17,47.1-38S490.9,144,464.9,144z"/>
<path class="st0" d="M464.9,288H47.1C21.1,288,0,305,0,326s21.1,38,47.1,38h417.8c26,0,47.1-17,47.1-38S490.9,288,464.9,288z"/>
</svg>
