<svg id="Layer_1" data-name="Layer 1" xmlns="http://www.w3.org/2000/svg" viewBox="0 0 682 682"><defs><style>.cls-1{fill:#65a098;}</style></defs><title>Artboard 1</title><path class="cls-1" d="M98.52,34.63C51.63,34.63,21,65.42,21,105.88c0,39.57,29.74,71.24,75.74,71.24h.89c47.8,0,77.55-31.67,77.55-71.24C174.26,65.42,145.41,34.63,98.52,34.63Z"/><path class="cls-1" d="M29.08,233.42H166.14V645.77H29.08Z"/><path class="cls-1" d="M502.56,223.74c-73.94,0-123.52,69.48-123.52,69.48v-59.8H242V645.77H379V415.5c0-12.33.89-24.64,4.51-33.45,9.91-24.62,32.46-50.12,70.32-50.12,49.6,0,69.43,37.81,69.43,93.25V645.77H660.35V409.34C660.35,282.68,592.73,223.74,502.56,223.74Z"/></svg>