<svg id="Layer_1" data-name="Layer 1" xmlns="http://www.w3.org/2000/svg" viewBox="0 0 72 72"><defs><style>.cls-1{fill:#65a098;}.cls-2{fill:#deebe9;}</style></defs><title>Artboard 5</title><path class="cls-1" d="M62.75,41.75c-5.3,6.2-13.4,9.9-15.2,7-1.3-2-2.5-.8-8.5,9-3.4,5.5-6.6,10-7.1,10-2.2,0-2.1-3.6.1-7.4,4.5-8,25.2-41.1,26.8-42.9,1.8-2,4.2-2.3,4.2-.4,0,.7-1.6,3.6-3.5,6.4a62.47,62.47,0,0,0-3.5,5.7c0,.3,1.7-.6,3.7-2,4.6-3.1,9.6-3,10.1.3C70.25,30.15,66.75,37.05,62.75,41.75Z"/><path class="cls-1" d="M38.55,36.65c-10.6,9.8-33.8,15.8-36.2,9.4-1-2.6,1.1-6.8,10.9-21.5,8.9-13.3,11.8-16.1,14.7-14.4.5.4-3.4,7.4-9,15.9-5.4,8.3-9.9,15.8-9.9,16.5,0,3.1,14.4-1.7,22.1-7.4,13.9-10.1,14.7-22,1.8-25.4a23.54,23.54,0,0,0-8.8-.5c-5.5.8-12.1,4-12.1,5.9,0,2.1-4.5,3.7-6.5,2.2-1.6-1.2-1.6-1.5-.1-4.3,1.7-3.4,7.8-6.8,14.7-8.3,5.3-1.1,15.1-.3,19.4,1.4,3.8,1.6,8.4,7,8.7,9.9C48.75,23.85,46,29.85,38.55,36.65Z"/><path class="cls-2" d="M56.45,35.87c-6.1,5.8-7.8,8.8-5.1,8.8,3.8,0,13.7-9.9,13.7-13.7C65.05,28.47,62.85,29.67,56.45,35.87Z"/></svg>