<svg id="Bold" xmlns="http://www.w3.org/2000/svg" viewBox="0 0 512 512"><defs><style>.cls-1{fill:#65a098;}</style></defs><title>Artboard 1</title><path class="cls-1" d="M459.39,151.74A209.41,209.41,0,0,0,512,97.26v0a219,219,0,0,1-60.48,16.57,104.39,104.39,0,0,0,46.19-58,210.24,210.24,0,0,1-66.56,25.41A105,105,0,0,0,249.58,153,108,108,0,0,0,252,176.92C164.76,172.65,87.53,130.84,35.65,67.11A105,105,0,0,0,67.9,207.4a103.66,103.66,0,0,1-47.42-12.93v1.16a105.45,105.45,0,0,0,84.1,103.14,104.28,104.28,0,0,1-27.52,3.46,92.61,92.61,0,0,1-19.87-1.79c13.59,41.55,52.21,72.13,98.07,73.13A211,211,0,0,1,25.11,418.33,199.54,199.54,0,0,1,0,416.9,295.62,295.62,0,0,0,161,464c185.24,0,306-154.54,298.37-312.26Z"/></svg>